<?xml version="1.0" encoding="UTF-8" standalone="no"?>
<!-- Created with Inkscape (http://www.inkscape.org/) -->

<svg
   xmlns:dc="http://purl.org/dc/elements/1.1/"
   xmlns:cc="http://creativecommons.org/ns#"
   xmlns:rdf="http://www.w3.org/1999/02/22-rdf-syntax-ns#"
   xmlns:svg="http://www.w3.org/2000/svg"
   xmlns="http://www.w3.org/2000/svg"
   xmlns:sodipodi="http://sodipodi.sourceforge.net/DTD/sodipodi-0.dtd"
   xmlns:inkscape="http://www.inkscape.org/namespaces/inkscape"
   width="500"
   height="700"
   id="svg8998"
   version="1.1"
   inkscape:version="0.48.3.1 r9886"
   sodipodi:docname="New document 14">
  <defs
     id="defs9000" />
  <sodipodi:namedview
     id="base"
     pagecolor="#ffffff"
     bordercolor="#666666"
     borderopacity="1.0"
     inkscape:pageopacity="0.0"
     inkscape:pageshadow="2"
     inkscape:zoom="0.29002427"
     inkscape:cx="-603.64628"
     inkscape:cy="247.05831"
     inkscape:document-units="px"
     inkscape:current-layer="layer1"
     showgrid="false"
     inkscape:window-width="1366"
     inkscape:window-height="722"
     inkscape:window-x="0"
     inkscape:window-y="24"
     inkscape:window-maximized="1" />
  <metadata
     id="metadata9003">
    <rdf:RDF>
      <cc:Work
         rdf:about="">
        <dc:format>image/svg+xml</dc:format>
        <dc:type
           rdf:resource="http://purl.org/dc/dcmitype/StillImage" />
        <dc:title></dc:title>
      </cc:Work>
    </rdf:RDF>
  </metadata>
  <g
     inkscape:label="Layer 1"
     inkscape:groupmode="layer"
     id="layer1"
     transform="translate(0,-352.36217)">
    <text
       xml:space="preserve"
       style="font-size:46.57841873px;font-style:normal;font-variant:normal;font-weight:300;font-stretch:normal;text-align:start;line-height:125%;letter-spacing:0px;word-spacing:0px;writing-mode:lr-tb;text-anchor:start;fill:#f1c40f;fill-opacity:1;stroke:none;font-family:Orbitron;-inkscape-font-specification:Orbitron Light"
       x="216.91724"
       y="423.68582"
       id="text2985-8-8-2"
       sodipodi:linespacing="125%"><tspan
         sodipodi:role="line"
         id="tspan2987-1-4-5"
         x="216.91724"
         y="423.68582"
         style="font-size:46.57841873px;font-style:normal;font-variant:normal;font-weight:300;font-stretch:normal;text-align:start;line-height:125%;writing-mode:lr-tb;text-anchor:start;fill:#000000;font-family:Orbitron;-inkscape-font-specification:Orbitron Light">FISL<tspan
   style="font-size:46.57841873px;font-style:normal;font-variant:normal;font-weight:300;font-stretch:normal;text-align:start;line-height:125%;writing-mode:lr-tb;text-anchor:start;fill:#95a5a6;font-family:Orbitron;-inkscape-font-specification:Orbitron Light"
   id="tspan12168-0-8">15</tspan></tspan></text>
    <text
       xml:space="preserve"
       style="font-size:13.11922169px;font-style:normal;font-variant:normal;font-weight:500;font-stretch:normal;text-align:start;line-height:125%;letter-spacing:0px;word-spacing:0px;writing-mode:lr-tb;text-anchor:start;fill:#f1c40f;fill-opacity:1;stroke:none;font-family:Orbitron;-inkscape-font-specification:Orbitron Medium"
       x="219.6057"
       y="440.47644"
       id="text2985-8-5-73-8"
       sodipodi:linespacing="125%"><tspan
         sodipodi:role="line"
         id="tspan2987-1-0-9-6"
         x="219.6057"
         y="440.47644"
         style="font-size:13.11922169px;font-style:normal;font-variant:normal;font-weight:500;font-stretch:normal;text-align:start;line-height:125%;writing-mode:lr-tb;text-anchor:start;fill:#000000;font-family:Orbitron;-inkscape-font-specification:Orbitron Medium">15º Fórum Internacional</tspan></text>
    <text
       xml:space="preserve"
       style="font-size:16.16308594px;font-style:normal;font-variant:normal;font-weight:500;font-stretch:normal;text-align:start;line-height:125%;letter-spacing:0px;word-spacing:0px;writing-mode:lr-tb;text-anchor:start;fill:#95a5a6;fill-opacity:1;stroke:none;font-family:Orbitron;-inkscape-font-specification:Orbitron Medium"
       x="218.79448"
       y="458.92252"
       id="text2985-8-5-7-7-8"
       sodipodi:linespacing="125%"><tspan
         sodipodi:role="line"
         id="tspan2987-1-0-5-3-9"
         x="218.79448"
         y="458.92252"
         style="font-size:16.16308594px;font-style:normal;font-variant:normal;font-weight:500;font-stretch:normal;text-align:start;line-height:125%;writing-mode:lr-tb;text-anchor:start;fill:#7f8c8d;font-family:Orbitron;-inkscape-font-specification:Orbitron Medium">SOFTWARE LIVRE</tspan></text>
    <text
       xml:space="preserve"
       style="font-size:13.43294334px;font-style:normal;font-variant:normal;font-weight:300;font-stretch:normal;text-align:start;line-height:125%;letter-spacing:0px;word-spacing:0px;writing-mode:lr-tb;text-anchor:start;fill:#f1c40f;fill-opacity:1;stroke:none;font-family:Orbitron;-inkscape-font-specification:Orbitron Light"
       x="218.83971"
       y="482.63788"
       id="text2985-8-5-3-2-7"
       sodipodi:linespacing="125%"><tspan
         sodipodi:role="line"
         id="tspan2987-1-0-52-2-5"
         x="218.83971"
         y="482.63788"
         style="font-size:13.43294334px;font-style:normal;font-variant:normal;font-weight:300;font-stretch:normal;text-align:start;line-height:125%;writing-mode:lr-tb;text-anchor:start;fill:#000000;font-family:Orbitron;-inkscape-font-specification:Orbitron Light">A tecnologia que liberta</tspan></text>
    <path
       inkscape:connector-curvature="0"
       style="opacity:0.98000004;fill:#231f20;fill-opacity:0.98000004;fill-rule:nonzero;stroke:none"
       d="m 157.6732,390.10264 c -2.68421,0.002 -5.3227,1.02628 -7.35196,3.05293 l -37.44515,37.38285 c -4.05862,4.05336 -4.05862,10.71277 0,14.76623 l 37.44515,37.38285 c 4.05884,4.05346 10.70757,4.05346 14.76623,0 l 37.44516,-37.38285 c 4.05866,-4.05346 4.0632,-10.7085 0,-14.76623 l -37.44516,-37.38285 c -2.03142,-2.0289 -4.73006,-3.05549 -7.41427,-3.05293 z m 0,3.48906 c 1.76324,-0.002 3.56788,0.7035 4.92208,2.05606 l 37.44516,37.38285 c 2.70823,2.70495 2.70891,7.07627 0,9.78185 l -37.44516,37.38285 c -2.70901,2.70527 -7.07284,2.70527 -9.78185,0 l -37.44515,-37.38285 c -2.70913,-2.70588 -2.70913,-7.07597 0,-9.78185 l 37.44515,-37.38285 c 1.35467,-1.35274 3.09654,-2.0541 4.85977,-2.05606 z"
       id="path3432-7-2-2-9-5-6-8" />
    <path
       inkscape:connector-curvature="0"
       id="path3438-2-1-2-2-4-5-3"
       style="fill:#fae207;fill-opacity:0.98000004;fill-rule:nonzero;stroke:none"
       d="m 162.58421,395.63831 c -2.70839,-2.70512 -7.05244,-2.69751 -9.76177,0.008 l -37.441,37.39576 c -2.70913,2.70588 -2.70913,7.03571 0,9.74159 l 37.4495,37.40435 c 2.70901,2.70526 7.04426,2.70526 9.75327,0 l 37.44123,-37.39622 c 2.70891,-2.70558 2.71621,-7.04478 0.008,-9.74972 l -37.44901,-37.40411 z" />
    <path
       inkscape:connector-curvature="0"
       id="path3444-5-5-6-3-5-3"
       style="opacity:0.98000004;fill:#231f20;fill-opacity:0.98000004;fill-rule:nonzero;stroke:none"
       d="m 173.05546,426.06608 2.61155,2.66533 1.1054,-9.9708 -10.04484,1.28358 2.63135,2.81502 -8.73931,8.93575 -0.0199,-13.03435 3.81768,0 -6.55131,-7.60337 -6.00489,7.70083 3.81696,0 -0.10128,13.13168 -9.64163,-9.18208 2.73455,-2.86301 -10.59763,-1.18405 1.50555,9.9708 2.74101,-2.86305 9.2415,9.48081 -12.75756,-0.10029 0,-3.75194 -8.19927,6.3191 8.19927,6.02109 0,-4.04644 12.95793,0 -9.34209,9.18236 -2.81208,-2.27078 -1.54436,9.67624 10.58329,-1.08576 -2.91195,-2.66722 9.84347,-8.7884 0.10208,13.00883 -3.81768,0.0261 6.00489,7.80092 6.34888,-7.70101 -3.58985,0 -0.0504,-13.01548 8.76392,8.67091 -2.71157,2.66535 10.24518,1.08574 -1.20541,-9.67624 -2.70307,2.08229 -8.82681,-8.99385 12.63434,0 0,4.04642 8.03578,-6.02109 -8.03578,-6.31908 9.4e-4,3.9489 -12.75698,0 9.04003,-9.3798 z" />
    <rect
       style="color:#000000;fill:#f1c40f;stroke:none;stroke-width:1;marker:none;visibility:visible;display:inline;overflow:visible;enable-background:accumulate"
       id="rect9047"
       width="328.00754"
       height="151.79073"
       x="85.996231"
       y="510.28793" />
    <text
       xml:space="preserve"
       style="font-size:46.57841873px;font-style:normal;font-variant:normal;font-weight:300;font-stretch:normal;text-align:start;line-height:125%;letter-spacing:0px;word-spacing:0px;writing-mode:lr-tb;text-anchor:start;fill:#f1c40f;fill-opacity:1;stroke:none;font-family:Orbitron;-inkscape-font-specification:Orbitron Light"
       x="216.91724"
       y="571.95404"
       id="text2985-8-8-2-4"
       sodipodi:linespacing="125%"><tspan
         sodipodi:role="line"
         id="tspan2987-1-4-5-1"
         x="216.91724"
         y="571.95404"
         style="font-size:46.57841873px;font-style:normal;font-variant:normal;font-weight:300;font-stretch:normal;text-align:start;line-height:125%;writing-mode:lr-tb;text-anchor:start;fill:#000000;font-family:Orbitron;-inkscape-font-specification:Orbitron Light">FISL<tspan
   style="font-size:46.57841873px;font-style:normal;font-variant:normal;font-weight:300;font-stretch:normal;text-align:start;line-height:125%;writing-mode:lr-tb;text-anchor:start;fill:#ffffff;font-family:Orbitron;-inkscape-font-specification:Orbitron Light"
   id="tspan12168-0-8-6">15</tspan></tspan></text>
    <text
       xml:space="preserve"
       style="font-size:13.11922169px;font-style:normal;font-variant:normal;font-weight:500;font-stretch:normal;text-align:start;line-height:125%;letter-spacing:0px;word-spacing:0px;writing-mode:lr-tb;text-anchor:start;fill:#f1c40f;fill-opacity:1;stroke:none;font-family:Orbitron;-inkscape-font-specification:Orbitron Medium"
       x="219.6057"
       y="588.74463"
       id="text2985-8-5-73-8-3"
       sodipodi:linespacing="125%"><tspan
         sodipodi:role="line"
         id="tspan2987-1-0-9-6-4"
         x="219.6057"
         y="588.74463"
         style="font-size:13.11922169px;font-style:normal;font-variant:normal;font-weight:500;font-stretch:normal;text-align:start;line-height:125%;writing-mode:lr-tb;text-anchor:start;fill:#000000;font-family:Orbitron;-inkscape-font-specification:Orbitron Medium">15º Fórum Internacional</tspan></text>
    <text
       xml:space="preserve"
       style="font-size:16.16308594px;font-style:normal;font-variant:normal;font-weight:500;font-stretch:normal;text-align:start;line-height:125%;letter-spacing:0px;word-spacing:0px;writing-mode:lr-tb;text-anchor:start;fill:#95a5a6;fill-opacity:1;stroke:none;font-family:Orbitron;-inkscape-font-specification:Orbitron Medium"
       x="218.79448"
       y="607.19073"
       id="text2985-8-5-7-7-8-2"
       sodipodi:linespacing="125%"><tspan
         sodipodi:role="line"
         id="tspan2987-1-0-5-3-9-9"
         x="218.79448"
         y="607.19073"
         style="font-size:16.16308594px;font-style:normal;font-variant:normal;font-weight:500;font-stretch:normal;text-align:start;line-height:125%;writing-mode:lr-tb;text-anchor:start;fill:#ffffff;font-family:Orbitron;-inkscape-font-specification:Orbitron Medium">SOFTWARE LIVRE</tspan></text>
    <text
       xml:space="preserve"
       style="font-size:13.43294334px;font-style:normal;font-variant:normal;font-weight:300;font-stretch:normal;text-align:start;line-height:125%;letter-spacing:0px;word-spacing:0px;writing-mode:lr-tb;text-anchor:start;fill:#f1c40f;fill-opacity:1;stroke:none;font-family:Orbitron;-inkscape-font-specification:Orbitron Light"
       x="218.83971"
       y="630.90607"
       id="text2985-8-5-3-2-7-8"
       sodipodi:linespacing="125%"><tspan
         sodipodi:role="line"
         id="tspan2987-1-0-52-2-5-8"
         x="218.83971"
         y="630.90607"
         style="font-size:13.43294334px;font-style:normal;font-variant:normal;font-weight:300;font-stretch:normal;text-align:start;line-height:125%;writing-mode:lr-tb;text-anchor:start;fill:#000000;font-family:Orbitron;-inkscape-font-specification:Orbitron Light">A tecnologia que liberta</tspan></text>
    <path
       inkscape:connector-curvature="0"
       style="opacity:0.98000004;fill:#231f20;fill-opacity:0.98000004;fill-rule:nonzero;stroke:none"
       d="m 157.6732,538.37083 c -2.68421,0.002 -5.3227,1.02629 -7.35196,3.05294 l -37.44515,37.38285 c -4.05862,4.05336 -4.05862,10.71277 0,14.76623 l 37.44515,37.38285 c 4.05884,4.05346 10.70757,4.05346 14.76623,0 l 37.44516,-37.38285 c 4.05866,-4.05346 4.0632,-10.7085 0,-14.76623 l -37.44516,-37.38285 c -2.03142,-2.0289 -4.73006,-3.05549 -7.41427,-3.05294 z m 0,3.48907 c 1.76324,-0.002 3.56788,0.7035 4.92208,2.05606 l 37.44516,37.38285 c 2.70823,2.70495 2.70891,7.07627 0,9.78185 l -37.44516,37.38285 c -2.70901,2.70526 -7.07284,2.70526 -9.78185,0 l -37.44515,-37.38285 c -2.70913,-2.70588 -2.70913,-7.07597 0,-9.78185 l 37.44515,-37.38285 c 1.35467,-1.35274 3.09654,-2.05411 4.85977,-2.05606 z"
       id="path3432-7-2-2-9-5-6-8-6" />
    <path
       inkscape:connector-curvature="0"
       id="path3438-2-1-2-2-4-5-3-3"
       style="fill:#fae207;fill-opacity:0.98000004;fill-rule:nonzero;stroke:none"
       d="m 162.58421,543.90651 c -2.70839,-2.70513 -7.05244,-2.69751 -9.76177,0.008 l -37.441,37.39576 c -2.70913,2.70588 -2.70913,7.03571 0,9.74159 l 37.4495,37.40435 c 2.70901,2.70526 7.04426,2.70526 9.75327,0 l 37.44123,-37.39622 c 2.70891,-2.70558 2.71621,-7.04478 0.008,-9.74972 l -37.44901,-37.40411 z" />
    <path
       inkscape:connector-curvature="0"
       id="path3444-5-5-6-3-5-3-2"
       style="opacity:0.98000004;fill:#231f20;fill-opacity:0.98000004;fill-rule:nonzero;stroke:none"
       d="m 173.05546,574.33428 2.61155,2.66532 1.1054,-9.97079 -10.04484,1.28358 2.63135,2.81502 -8.73931,8.93575 -0.0199,-13.03435 3.81768,0 -6.55131,-7.60337 -6.00489,7.70082 3.81696,0 -0.10128,13.13169 -9.64163,-9.18208 2.73455,-2.86301 -10.59763,-1.18405 1.50555,9.97079 2.74101,-2.86304 9.2415,9.48081 -12.75756,-0.10029 0,-3.75194 -8.19927,6.3191 8.19927,6.02109 0,-4.04644 12.95793,0 -9.34209,9.18236 -2.81208,-2.27078 -1.54436,9.67624 10.58329,-1.08576 -2.91195,-2.66722 9.84347,-8.7884 0.10208,13.00883 -3.81768,0.0261 6.00489,7.80091 6.34888,-7.701 -3.58985,0 -0.0504,-13.01548 8.76392,8.67091 -2.71157,2.66535 10.24518,1.08574 -1.20541,-9.67624 -2.70307,2.08229 -8.82681,-8.99385 12.63434,0 0,4.04642 8.03578,-6.02109 -8.03578,-6.31908 9.4e-4,3.9489 -12.75698,0 9.04003,-9.3798 z" />
    <rect
       y="862.99011"
       x="85.996223"
       height="151.79073"
       width="328.00754"
       id="rect9047-6-0"
       style="color:#000000;fill:#000000;stroke:none;stroke-width:1;marker:none;visibility:visible;display:inline;overflow:visible;enable-background:accumulate" />
    <text
       xml:space="preserve"
       style="font-size:46.57842255px;font-style:normal;font-variant:normal;font-weight:300;font-stretch:normal;text-align:start;line-height:125%;letter-spacing:0px;word-spacing:0px;writing-mode:lr-tb;text-anchor:start;fill:#ffffff;fill-opacity:1;stroke:none;font-family:Orbitron;-inkscape-font-specification:Orbitron Light"
       x="216.04489"
       y="925.5285"
       id="text2985-8-8-2-1-1"
       sodipodi:linespacing="125%"><tspan
         sodipodi:role="line"
         id="tspan2987-1-4-5-3-3"
         x="216.04489"
         y="925.5285"
         style="font-size:46.57842255px;font-style:normal;font-variant:normal;font-weight:300;font-stretch:normal;text-align:start;line-height:125%;writing-mode:lr-tb;text-anchor:start;fill:#ffffff;fill-opacity:1;font-family:Orbitron;-inkscape-font-specification:Orbitron Light"><tspan
   id="tspan9259-3"
   style="fill:#ffffff">FISL</tspan>15</tspan></text>
    <text
       xml:space="preserve"
       style="font-size:13.11922169px;font-style:normal;font-variant:normal;font-weight:500;font-stretch:normal;text-align:start;line-height:125%;letter-spacing:0px;word-spacing:0px;writing-mode:lr-tb;text-anchor:start;fill:#ffffff;fill-opacity:1;stroke:none;font-family:Orbitron;-inkscape-font-specification:Orbitron Medium"
       x="218.73338"
       y="942.31915"
       id="text2985-8-5-73-8-8-0"
       sodipodi:linespacing="125%"><tspan
         sodipodi:role="line"
         id="tspan2987-1-0-9-6-9-3"
         x="218.73338"
         y="942.31915"
         style="font-size:13.11922169px;font-style:normal;font-variant:normal;font-weight:500;font-stretch:normal;text-align:start;line-height:125%;writing-mode:lr-tb;text-anchor:start;fill:#ffffff;font-family:Orbitron;-inkscape-font-specification:Orbitron Medium">15º Fórum Internacional</tspan></text>
    <text
       xml:space="preserve"
       style="font-size:16.16308594px;font-style:normal;font-variant:normal;font-weight:500;font-stretch:normal;text-align:start;line-height:125%;letter-spacing:0px;word-spacing:0px;writing-mode:lr-tb;text-anchor:start;fill:#ffffff;fill-opacity:1;stroke:none;font-family:Orbitron;-inkscape-font-specification:Orbitron Medium"
       x="217.92213"
       y="960.7652"
       id="text2985-8-5-7-7-8-24-2"
       sodipodi:linespacing="125%"><tspan
         sodipodi:role="line"
         id="tspan2987-1-0-5-3-9-0-4"
         x="217.92213"
         y="960.7652"
         style="font-size:16.16308594px;font-style:normal;font-variant:normal;font-weight:500;font-stretch:normal;text-align:start;line-height:125%;writing-mode:lr-tb;text-anchor:start;fill:#ffffff;fill-opacity:1;font-family:Orbitron;-inkscape-font-specification:Orbitron Medium">SOFTWARE LIVRE</tspan></text>
    <text
       sodipodi:linespacing="125%"
       id="text2985-8-5-3-2-7-5-7"
       y="984.48059"
       x="217.96736"
       style="font-size:13.43294334px;font-style:normal;font-variant:normal;font-weight:300;font-stretch:normal;text-align:start;line-height:125%;letter-spacing:0px;word-spacing:0px;writing-mode:lr-tb;text-anchor:start;fill:#ffffff;fill-opacity:1;stroke:none;font-family:Orbitron;-inkscape-font-specification:Orbitron Light"
       xml:space="preserve"><tspan
         style="font-size:13.43294334px;font-style:normal;font-variant:normal;font-weight:300;font-stretch:normal;text-align:start;line-height:125%;writing-mode:lr-tb;text-anchor:start;fill:#ffffff;font-family:Orbitron;-inkscape-font-specification:Orbitron Light"
         y="984.48059"
         x="217.96736"
         id="tspan2987-1-0-52-2-5-7-4"
         sodipodi:role="line">A tecnologia que liberta</tspan></text>
    <path
       inkscape:connector-curvature="0"
       style="opacity:0.98000004;fill:#ffffff;fill-opacity:1;fill-rule:nonzero;stroke:none"
       d="m 156.80087,891.94539 c -2.68421,0.002 -5.3227,1.02629 -7.35197,3.05294 l -37.44515,37.38284 c -4.05863,4.05337 -4.05863,10.71278 0,14.76624 l 37.44515,37.38286 c 4.05884,4.05345 10.70756,4.05345 14.76623,0 l 37.44515,-37.38286 c 4.05867,-4.05346 4.06322,-10.7085 0,-14.76624 l -37.44515,-37.38284 c -2.03141,-2.02891 -4.73006,-3.05548 -7.41426,-3.05294 z m 0,3.48907 c 1.76323,-0.002 3.56787,0.7035 4.92207,2.05605 l 37.44517,37.38286 c 2.70822,2.70494 2.7089,7.07627 0,9.78184 l -37.44517,37.38286 c -2.709,2.70527 -7.07284,2.70527 -9.78184,0 l -37.44515,-37.38286 c -2.70914,-2.70587 -2.70914,-7.07597 0,-9.78184 l 37.44515,-37.38286 c 1.35467,-1.35274 3.09652,-2.05409 4.85977,-2.05605 z"
       id="path3432-7-2-2-9-5-6-8-9-6" />
    <path
       inkscape:connector-curvature="0"
       id="path3438-2-1-2-2-4-5-3-1-1"
       style="fill:#000000;fill-opacity:0.98000004;fill-rule:nonzero;stroke:none"
       d="m 161.71187,897.48107 c -2.70839,-2.70513 -7.05243,-2.69752 -9.76177,0.008 l -37.441,37.39575 c -2.70913,2.70587 -2.70913,7.03571 0,9.74159 l 37.44951,37.40435 c 2.709,2.70527 7.04426,2.70527 9.75326,0 l 37.44123,-37.39622 c 2.70892,-2.70557 2.71622,-7.04478 0.008,-9.74972 l -37.4486,-37.40371 z" />
    <path
       inkscape:connector-curvature="0"
       id="path3444-5-5-6-3-5-3-26-0"
       style="opacity:0.98000004;fill:#ffffff;fill-opacity:1;fill-rule:nonzero;stroke:none"
       d="m 172.18313,927.90885 2.61154,2.66532 1.10541,-9.97079 -10.04485,1.28357 2.63136,2.81502 -8.73931,8.93575 -0.0199,-13.03434 3.81769,0 -6.55131,-7.60339 -6.00488,7.70083 3.81695,0 -0.10119,13.13169 -9.64164,-9.18208 2.73455,-2.86301 -10.59764,-1.18404 1.50556,9.97079 2.741,-2.86305 9.24151,9.48081 -12.75757,-0.10025 0,-3.75195 -8.19926,6.31911 8.19926,6.02109 0,-4.04645 12.95794,0 -9.34209,9.18238 -2.81209,-2.27079 -1.54436,9.67624 10.58329,-1.08575 -2.91195,-2.66724 9.84349,-8.78839 0.10214,13.00883 -3.81767,0.0262 6.00488,7.80091 6.34888,-7.70101 -3.58985,0 -0.0504,-13.01547 8.76393,8.6709 -2.71157,2.66536 10.24518,1.08574 -1.2054,-9.67624 -2.70307,2.08229 -8.82683,-8.99386 12.63436,0 0,4.04642 8.03577,-6.02108 -8.03577,-6.31909 9.2e-4,3.94891 -12.75697,0 9.04003,-9.37982 z" />
    <rect
       y="686.63904"
       x="85.996231"
       height="151.79073"
       width="328.00754"
       id="rect9047-6"
       style="color:#000000;fill:#000000;stroke:none;stroke-width:1;marker:none;visibility:visible;display:inline;overflow:visible;enable-background:accumulate" />
    <text
       xml:space="preserve"
       style="font-size:46.57841873px;font-style:normal;font-variant:normal;font-weight:300;font-stretch:normal;text-align:start;line-height:125%;letter-spacing:0px;word-spacing:0px;writing-mode:lr-tb;text-anchor:start;fill:#f5de07;fill-opacity:1;stroke:none;font-family:Orbitron;-inkscape-font-specification:Orbitron Light"
       x="216.04488"
       y="749.17749"
       id="text2985-8-8-2-1"
       sodipodi:linespacing="125%"><tspan
         sodipodi:role="line"
         id="tspan2987-1-4-5-3"
         x="216.04488"
         y="749.17749"
         style="font-size:46.57841873px;font-style:normal;font-variant:normal;font-weight:300;font-stretch:normal;text-align:start;line-height:125%;writing-mode:lr-tb;text-anchor:start;fill:#f5de07;fill-opacity:1;font-family:Orbitron;-inkscape-font-specification:Orbitron Light"><tspan
   id="tspan9259"
   style="fill:#ffffff">FISL</tspan>15</tspan></text>
    <text
       xml:space="preserve"
       style="font-size:13.11922169px;font-style:normal;font-variant:normal;font-weight:500;font-stretch:normal;text-align:start;line-height:125%;letter-spacing:0px;word-spacing:0px;writing-mode:lr-tb;text-anchor:start;fill:#ffffff;fill-opacity:1;stroke:none;font-family:Orbitron;-inkscape-font-specification:Orbitron Medium"
       x="218.73334"
       y="765.96814"
       id="text2985-8-5-73-8-8"
       sodipodi:linespacing="125%"><tspan
         sodipodi:role="line"
         id="tspan2987-1-0-9-6-9"
         x="218.73334"
         y="765.96814"
         style="font-size:13.11922169px;font-style:normal;font-variant:normal;font-weight:500;font-stretch:normal;text-align:start;line-height:125%;writing-mode:lr-tb;text-anchor:start;fill:#ffffff;font-family:Orbitron;-inkscape-font-specification:Orbitron Medium">15º Fórum Internacional</tspan></text>
    <text
       xml:space="preserve"
       style="font-size:16.16308594px;font-style:normal;font-variant:normal;font-weight:500;font-stretch:normal;text-align:start;line-height:125%;letter-spacing:0px;word-spacing:0px;writing-mode:lr-tb;text-anchor:start;fill:#f5de07;fill-opacity:1;stroke:none;font-family:Orbitron;-inkscape-font-specification:Orbitron Medium"
       x="217.92212"
       y="784.41418"
       id="text2985-8-5-7-7-8-24"
       sodipodi:linespacing="125%"><tspan
         sodipodi:role="line"
         id="tspan2987-1-0-5-3-9-0"
         x="217.92212"
         y="784.41418"
         style="font-size:16.16308594px;font-style:normal;font-variant:normal;font-weight:500;font-stretch:normal;text-align:start;line-height:125%;writing-mode:lr-tb;text-anchor:start;fill:#f5de07;fill-opacity:1;font-family:Orbitron;-inkscape-font-specification:Orbitron Medium">SOFTWARE LIVRE</tspan></text>
    <text
       sodipodi:linespacing="125%"
       id="text2985-8-5-3-2-7-5"
       y="808.12958"
       x="217.96733"
       style="font-size:13.43294334px;font-style:normal;font-variant:normal;font-weight:300;font-stretch:normal;text-align:start;line-height:125%;letter-spacing:0px;word-spacing:0px;writing-mode:lr-tb;text-anchor:start;fill:#ffffff;fill-opacity:1;stroke:none;font-family:Orbitron;-inkscape-font-specification:Orbitron Light"
       xml:space="preserve"><tspan
         style="font-size:13.43294334px;font-style:normal;font-variant:normal;font-weight:300;font-stretch:normal;text-align:start;line-height:125%;writing-mode:lr-tb;text-anchor:start;fill:#ffffff;font-family:Orbitron;-inkscape-font-specification:Orbitron Light"
         y="808.12958"
         x="217.96733"
         id="tspan2987-1-0-52-2-5-7"
         sodipodi:role="line">A tecnologia que liberta</tspan></text>
    <path
       inkscape:connector-curvature="0"
       style="opacity:0.98000004;fill:#231f20;fill-opacity:0.98000004;fill-rule:nonzero;stroke:none"
       d="m 156.80084,715.59432 c -2.68421,0.002 -5.3227,1.02629 -7.35196,3.05294 l -37.44516,37.38285 c -4.05862,4.05336 -4.05862,10.71277 0,14.76623 l 37.44516,37.38285 c 4.05884,4.05346 10.70756,4.05346 14.76622,0 l 37.44516,-37.38285 c 4.05866,-4.05346 4.06321,-10.7085 0,-14.76623 L 164.2151,718.64726 c -2.03141,-2.0289 -4.73005,-3.05549 -7.41426,-3.05294 z m 0,3.48907 c 1.76323,-0.002 3.56788,0.7035 4.92207,2.05606 l 37.44516,37.38285 c 2.70824,2.70495 2.70891,7.07627 0,9.78185 L 161.72291,805.687 c -2.70901,2.70526 -7.07283,2.70526 -9.78184,0 l -37.44516,-37.38285 c -2.70913,-2.70588 -2.70913,-7.07597 0,-9.78185 l 37.44516,-37.38285 c 1.35467,-1.35274 3.09653,-2.05411 4.85977,-2.05606 z"
       id="path3432-7-2-2-9-5-6-8-9" />
    <path
       inkscape:connector-curvature="0"
       id="path3438-2-1-2-2-4-5-3-1"
       style="fill:#fae207;fill-opacity:0.98000004;fill-rule:nonzero;stroke:none"
       d="m 161.71185,721.13 c -2.70839,-2.70513 -7.05244,-2.69751 -9.76177,0.008 l -37.44101,37.39576 c -2.70913,2.70588 -2.70913,7.03571 0,9.74159 l 37.4495,37.40435 c 2.70901,2.70526 7.04427,2.70526 9.75328,0 l 37.44123,-37.39622 c 2.70891,-2.70558 2.71621,-7.04478 0.008,-9.74972 l -37.449,-37.40411 z" />
    <path
       inkscape:connector-curvature="0"
       id="path3444-5-5-6-3-5-3-26"
       style="opacity:0.98000004;fill:#231f20;fill-opacity:0.98000004;fill-rule:nonzero;stroke:none"
       d="m 172.18309,751.55777 2.61156,2.66532 1.1054,-9.97079 -10.04485,1.28358 2.63136,2.81502 -8.73932,8.93575 -0.0199,-13.03435 3.81767,0 -6.55131,-7.60337 -6.00488,7.70082 3.81696,0 -0.10128,13.13169 -9.64163,-9.18208 2.73455,-2.86301 -10.59763,-1.18405 1.50554,9.97079 2.74101,-2.86304 9.2415,9.48081 -12.75756,-0.10029 0,-3.75194 -8.19926,6.3191 8.19926,6.02109 0,-4.04644 12.95794,0 -9.34209,9.18236 -2.81209,-2.27078 -1.54436,9.67624 10.5833,-1.08576 -2.91196,-2.66722 9.84348,-8.7884 0.10208,13.00883 -3.81768,0.0261 6.00488,7.80091 6.34889,-7.701 -3.58985,0 -0.0504,-13.01548 8.76391,8.67091 -2.71156,2.66535 10.24517,1.08574 -1.2054,-9.67624 -2.70307,2.08229 -8.82682,-8.99385 12.63435,0 0,4.04642 8.03578,-6.02109 -8.03578,-6.31908 9.4e-4,3.9489 -12.75699,0 9.04004,-9.3798 z" />
  </g>
</svg>
